<?xml version="1.0" encoding="iso-8859-1"?>
<!-- Generator: Adobe Illustrator 19.0.1, SVG Export Plug-In . SVG Version: 6.00 Build 0)  -->
<svg version="1.1" xmlns="http://www.w3.org/2000/svg" xmlns:xlink="http://www.w3.org/1999/xlink" x="0px" y="0px"
	 viewBox="0 0 128 128" style="enable-background:new 0 0 128 128;" xml:space="preserve">
<g id="_x31_0">
	<path style="fill:#231F20;" d="M41.75,98.141h-3.594V31.145h3.594V98.141z M37.135,98.141h-3.594V29.859h3.594V98.141z
		 M32.344,97.564H28.75V30.654h3.594V97.564z M23.971,95.818l-0.013-62.832l3.594-0.001l0.013,62.833H23.971z M46.542,95.818h-3.594
		V32.986h3.594V95.818z M22.76,92.614h-3.594V36.18h3.594V92.614z M51.334,92.129H47.74V36.18h3.594V92.129z M99.25,87.304h-3.594
		V41.49h3.594V87.304z M94.458,87.304h-3.594V41.568h3.594V87.304z M17.969,87.304h-3.594V41.263h3.594V87.304z M104.042,86.241
		h-3.594V42.277h3.594V86.241z M89.667,86.241h-3.594V42.557h3.594V86.241z M56.125,86.241h-3.594V42.873h3.594V86.241z
		 M108.833,83.562h-3.594V45.225h3.594V83.562z M84.875,83.562h-3.594V45.225h3.594V83.562z M13.177,79.713H9.583V49.084h3.594
		V79.713z M60.917,77.15h-3.594V51.26h3.594V77.15z M80.083,77.143H76.49V51.657h3.594V77.143z M113.625,75.312h-3.594V53.057h3.594
		V75.312z M65.709,71.12h-3.594V57.11h3.594V71.12z M75.292,70.335h-3.594v-11.14h3.594V70.335z M118.417,69.629h-3.594V59.173
		h3.594V69.629z M70.5,69.102h-3.594v-9.451H70.5V69.102z M8.385,68.992H4.792v-9.183h3.594V68.992z M3.594,68.992H0v-9.183h3.594
		V68.992z M128,68.986h-3.594v-9.182H128V68.986z M123.208,68.986h-3.594v-9.182h3.594V68.986z"/>
</g>
<g id="Layer_1">
</g>
</svg>
