<svg xmlns="http://www.w3.org/2000/svg" viewBox="0 0 48 48"><title>22-codeing</title><g id="_22-codeing" data-name="22-codeing"><path d="M7,10H5V8H7A1,1,0,0,0,8,7V3.414L1.707,9.707.293,8.293l8-8A1,1,0,0,1,10,1V7A3,3,0,0,1,7,10Z"/><path d="M31,48H3a3,3,0,0,1-3-3V9a1,1,0,0,1,.293-.707l8-8A1,1,0,0,1,9,0H31a3,3,0,0,1,3,3V28H32V3a1,1,0,0,0-1-1H9.414L2,9.414V45a1,1,0,0,0,1,1H31a1,1,0,0,0,1-1V34h2V45A3,3,0,0,1,31,48Z"/><path d="M9.293,29.707l-5-5a1,1,0,0,1,0-1.414l5-5,1.414,1.414L6.414,24l4.293,4.293Z"/><path d="M24.707,29.707l-1.414-1.414L27.586,24l-4.293-4.293,1.414-1.414,5,5a1,1,0,0,1,0,1.414Z"/><rect x="11.592" y="22.5" width="10.817" height="2" transform="translate(-11.983 24.609) rotate(-56.31)"/><path d="M30,37.859a.993.993,0,0,1-.707-.293l-2.854-2.854a1,1,0,0,1,0-1.414L42.848,16.884a3.018,3.018,0,1,1,4.268,4.268L30.7,37.566A.993.993,0,0,1,30,37.859Zm-1.44-3.854L30,35.445,45.7,19.738a1.018,1.018,0,0,0-1.44-1.44Z"/><path d="M25,40a1,1,0,0,1-.919-1.394l2.141-5,1.838.787L26.9,37.1l2.7-1.156.787,1.838-5,2.141A.989.989,0,0,1,25,40Z"/><rect x="4" y="38" width="21" height="2"/><rect x="4" y="33" width="2" height="2"/><rect x="8" y="33" width="15" height="2"/><rect x="4" y="13" width="2" height="2"/><rect x="8" y="13" width="22" height="2"/><rect x="28" y="4" width="2" height="2"/><rect x="28" y="8" width="2" height="2"/><rect x="24" y="4" width="2" height="2"/></g></svg>