<?xml version="1.0" encoding="UTF-8"?>
<!DOCTYPE svg PUBLIC "-//W3C//DTD SVG 1.1//EN" "http://www.w3.org/Graphics/SVG/1.1/DTD/svg11.dtd">
<!-- Creator: CorelDRAW -->
<svg xmlns="http://www.w3.org/2000/svg" xml:space="preserve" width="6.82666in" height="6.82666in" style="shape-rendering:geometricPrecision; text-rendering:geometricPrecision; image-rendering:optimizeQuality; fill-rule:evenodd; clip-rule:evenodd"
viewBox="0 0 6.82666 6.82666"
 xmlns:xlink="http://www.w3.org/1999/xlink">
 <defs>
  <style type="text/css">
   <![CDATA[
    .fil1 {fill:none}
    .fil0 {fill:#212121;fill-rule:nonzero}
   ]]>
  </style>
 </defs>
 <g id="Layer_x0020_1">
  <metadata id="CorelCorpID_0Corel-Layer"/>
  <path class="fil0" d="M1.09921 0.96l4.62825 0c0.0463228,0 0.0883701,0.0188858 0.118772,0.0492913l-0.000200787 0.000200787c0.0305472,0.0306339 0.0494961,0.072626 0.0494961,0.118571l0 3.56816c0,0.0459409 -0.0189606,0.087937 -0.0495,0.118567l0.000204724 0.000200787c-0.0304094,0.0304094 -0.0724606,0.0492992 -0.118772,0.0492992l-1.12145 0 0.203657 -0.206854 0.879004 0 0 -3.49059 -4.55067 0 0 3.49059 2.45103 0 -0.203657 0.206854 -2.28616 0c-0.046311,0 -0.0883622,-0.018878 -0.118776,-0.0492953 -0.0304094,-0.0304094 -0.0492913,-0.0724528 -0.0492913,-0.118772l0 -3.56816c0,-0.0463268 0.0188819,-0.0883661 0.0492913,-0.118776l0.000200787 0.000200787c0.0306299,-0.0305354 0.0726181,-0.0494882 0.118575,-0.0494882z"/>
  <path class="fil0" d="M1.38733 4.07782c-0.0416496,0.0416496 -0.0416496,0.109185 0,0.150835 0.0416496,0.0416496 0.109185,0.0416496 0.150835,0l1.2691 -1.2691 0.958827 0.958827c0.0416496,0.0416496 0.109185,0.0416496 0.150835,0 0.0416496,-0.0416496 0.0416496,-0.109185 0,-0.150835l-1.03365 -1.03365 -0.000590551 -0.000606299c-0.0416535,-0.0416535 -0.109197,-0.0416535 -0.15085,0l7.87402e-006 7.87402e-006 -1.34452 1.34452z"/>
  <path class="fil0" d="M3.30068 3.30214c-0.0416496,0.0416496 -0.0416496,0.109185 0,0.150835 0.0416496,0.0416496 0.109185,0.0416496 0.150835,0l0.878157 -0.878157 0.958827 0.958827c0.0416496,0.0416496 0.109185,0.0416496 0.150835,0 0.0416496,-0.0416496 0.0416496,-0.109185 0,-0.150835l-1.03365 -1.03365 -0.000590551 -0.000606299c-0.0416535,-0.0416535 -0.109197,-0.0416535 -0.15085,0l7.87402e-006 7.87402e-006 -0.953575 0.953575z"/>
  <path class="fil0" d="M2.18671 1.56438c0.143685,0 0.27378,0.058252 0.367945,0.152421 0.0941693,0.0941654 0.152421,0.22426 0.152421,0.367945 0,0.143685 -0.058252,0.27378 -0.152421,0.367945 -0.0941654,0.0941693 -0.22426,0.152421 -0.367945,0.152421 -0.143685,0 -0.27378,-0.058252 -0.367945,-0.152421 -0.0941693,-0.0941654 -0.152421,-0.22426 -0.152421,-0.367945 0,-0.143685 0.058252,-0.27378 0.152421,-0.367945 0.0941654,-0.0941693 0.22426,-0.152421 0.367945,-0.152421zm0.21711 0.303256c-0.0555472,-0.0555512 -0.132315,-0.0899173 -0.21711,-0.0899173 -0.0847953,0 -0.161563,0.0343661 -0.21711,0.0899173 -0.0555512,0.0555472 -0.0899173,0.132315 -0.0899173,0.21711 0,0.0847953 0.0343661,0.161563 0.0899173,0.21711 0.0555472,0.0555512 0.132315,0.0899173 0.21711,0.0899173 0.0847953,0 0.161563,-0.0343661 0.21711,-0.0899173 0.0555512,-0.0555472 0.0899173,-0.132315 0.0899173,-0.21711 0,-0.0847953 -0.0343661,-0.161563 -0.0899173,-0.21711z"/>
  <polygon class="fil0" points="3.48119,5.02271 3.84522,5.38111 3.69605,5.53278 3.33202,5.17438 "/>
  <polygon class="fil0" points="4.6908,3.79411 5.05483,4.15252 4.90567,4.30419 4.54164,3.94578 "/>
  <path class="fil0" d="M3.81467 5.55028l-0.666016 0.316386 -0.138165 -0.135343 0.301984 -0.674795 0.0206024 -0.0302992 1.43922 -1.4618 0.000401575 -0.000811024 3.93701e-006 -3.93701e-006 0.000200787 0.000200787c0.0376417,-0.0379961 0.083811,-0.0626929 0.127949,-0.071878 0.0588465,-0.0122441 0.116315,0.000755906 0.158165,0.0419606l0.250276 0.246406c0.0419567,0.041311 0.0559016,0.0985669 0.0445827,0.157535 -0.00853543,0.0444764 -0.0327283,0.0912717 -0.0704921,0.12963l-1.43922 1.4618 -0.0294961 0.0210118zm-0.501693 0.00983465l0.397075 -0.18863 1.42627 -1.44865c0.00441339,-0.00448031 0.00788976,-0.00894094 0.0103898,-0.0131417l-0.214492 -0.211177c-0.00412205,0.00256299 -0.00848425,0.00609055 -0.0128622,0.0105394l-0.000405512 0.000811024 -3.93701e-006 3.93701e-006 -0.000200787 -0.000200787 -1.4257 1.44807 -0.180071 0.40237z"/>
 </g>
 <rect class="fil1" width="6.82666" height="6.82666"/>
</svg>
