<?xml version="1.0" encoding="iso-8859-1"?>
<!-- Uploaded to: SVG Repo, www.svgrepo.com, Generator: SVG Repo Mixer Tools -->
<svg fill="#000000" version="1.1" id="Layer_1" xmlns="http://www.w3.org/2000/svg" xmlns:xlink="http://www.w3.org/1999/xlink" 
	 viewBox="0 0 512.003 512.003" xml:space="preserve">
<g>
	<g>
		<path d="M267.714,91.499h-23.428c-69.563,0-126.159,56.594-126.159,126.159v76.685c0,69.563,56.594,126.158,126.159,126.158
			h23.428c69.563,0,126.159-56.594,126.159-126.158v-76.685C393.873,148.094,337.277,91.499,267.714,91.499z M290.861,124.751
			c12.681,3.16,24.368,8.852,34.494,16.511h-15.081v30.417h41.397c3.343,6.079,6.044,12.559,8.013,19.347h-70.555
			c6.319-10.017,9.991-21.863,9.991-34.556C299.12,145.24,296.244,134.36,290.861,124.751z M160.33,171.68h87.081v-30.417h-60.765
			c14.464-10.941,32.12-17.871,51.3-19.131c17.323,1.895,30.757,16.788,30.757,34.34c0,19.054-15.502,34.556-34.556,34.556h-81.829
			C154.286,184.239,156.987,177.759,160.33,171.68z M148.545,271.208h14.243v-30.417h-14.243v-19.346h35.387
			c-6.319,10.017-9.991,21.862-9.991,34.555s3.672,24.538,9.991,34.555h-35.387V271.208z M237.945,389.868
			c-19.18-1.26-36.834-8.19-51.3-19.131h60.764v-30.417h-87.08c-3.343-6.079-6.044-12.559-8.013-19.347h81.829
			c19.054,0,34.556,15.502,34.556,34.556C268.702,373.078,255.267,387.973,237.945,389.868z M351.671,340.319h-41.398v30.417h15.081
			c-10.126,7.658-21.813,13.351-34.494,16.511c5.384-9.609,8.26-20.489,8.26-31.72c0-12.693-3.672-24.539-9.991-34.556h70.555
			C357.715,327.76,355.014,334.24,351.671,340.319z M363.455,240.791H225.65v30.417h137.805v19.346H238.913
			c-19.053,0-34.555-15.502-34.555-34.555s15.502-34.555,34.555-34.555h124.542V240.791z"/>
	</g>
</g>
<g>
	<g>
		<rect x="240.793" width="30.417" height="69.443"/>
	</g>
</g>
<g>
	<g>
		<rect x="240.793" y="442.56" width="30.417" height="69.443"/>
	</g>
</g>
<g>
	<g>
		<rect x="156.108" y="16.845" transform="matrix(0.9239 -0.3827 0.3827 0.9239 -6.6929 69.4865)" width="30.418" height="69.444"/>
	</g>
</g>
<g>
	<g>
		
			<rect x="325.477" y="425.697" transform="matrix(0.9239 -0.3827 0.3827 0.9239 -150.2633 165.4249)" width="30.418" height="69.444"/>
	</g>
</g>
<g>
	<g>
		<rect x="84.325" y="64.812" transform="matrix(0.7071 -0.7071 0.7071 0.7071 -41.228 99.5332)" width="30.417" height="69.442"/>
	</g>
</g>
<g>
	<g>
		
			<rect x="397.256" y="377.753" transform="matrix(0.7071 -0.7071 0.7071 0.7071 -170.8549 412.4669)" width="30.417" height="69.442"/>
	</g>
</g>
<g>
	<g>
		
			<rect x="36.35" y="136.602" transform="matrix(0.3827 -0.9239 0.9239 0.3827 -126.4547 153.3948)" width="30.418" height="69.444"/>
	</g>
</g>
<g>
	<g>
		
			<rect x="445.222" y="305.937" transform="matrix(0.3827 -0.9239 0.9239 0.3827 -30.4992 635.6733)" width="30.418" height="69.444"/>
	</g>
</g>
<g>
	<g>
		<rect y="240.793" width="69.443" height="30.417"/>
	</g>
</g>
<g>
	<g>
		<rect x="442.56" y="240.793" width="69.443" height="30.417"/>
	</g>
</g>
<g>
	<g>
		
			<rect x="16.853" y="325.481" transform="matrix(0.9239 -0.3827 0.3827 0.9239 -126.4527 45.6719)" width="69.444" height="30.418"/>
	</g>
</g>
<g>
	<g>
		
			<rect x="425.692" y="156.123" transform="matrix(0.9239 -0.3827 0.3827 0.9239 -30.519 189.2383)" width="69.444" height="30.418"/>
	</g>
</g>
<g>
	<g>
		
			<rect x="64.807" y="397.254" transform="matrix(0.7071 -0.7071 0.7071 0.7071 -262.504 191.1843)" width="69.442" height="30.417"/>
	</g>
</g>
<g>
	<g>
		<rect x="377.748" y="84.316" transform="matrix(0.7071 -0.7071 0.7071 0.7071 50.435 320.8098)" width="69.442" height="30.417"/>
	</g>
</g>
<g>
	<g>
		
			<rect x="136.61" y="445.206" transform="matrix(0.3827 -0.9239 0.9239 0.3827 -319.6011 442.5086)" width="69.444" height="30.418"/>
	</g>
</g>
<g>
	<g>
		
			<rect x="305.968" y="36.366" transform="matrix(0.3827 -0.9239 0.9239 0.3827 162.6618 346.5933)" width="69.444" height="30.418"/>
	</g>
</g>
</svg>