<svg xmlns="http://www.w3.org/2000/svg" viewBox="0 0 48 48"><title>44-Question</title><g id="_44-Question" data-name="44-Question"><path d="M38,48H17a1,1,0,0,1-1-1V39c0-1.841-.857-1.989-1.029-2H9a3.888,3.888,0,0,1-4-4V29.749A3.581,3.581,0,0,0,3,29a2.916,2.916,0,0,1-3-3,1,1,0,0,1,.125-.483L5,16.681V15A15.017,15.017,0,0,1,20,0V2A13.015,13.015,0,0,0,7,15v1.938a1,1,0,0,1-.125.484l-4.854,8.8A.878.878,0,0,0,3,27a5.773,5.773,0,0,1,3.663,1.524A1,1,0,0,1,7,29.272V33a1.882,1.882,0,0,0,2,2h6c1.038,0,3,.836,3,4v7H37V40a1,1,0,0,1,1-1c2.891,0,3.857-3.513,4-4.11V32h2v3a.925.925,0,0,1-.02.2c-.364,1.823-1.855,5.121-4.98,5.712V47A1,1,0,0,1,38,48Z"/><path d="M32,32A16,16,0,1,1,48,16,16.019,16.019,0,0,1,32,32ZM32,2A14,14,0,1,0,46,16,14.015,14.015,0,0,0,32,2Z"/><path d="M32,25a6.006,6.006,0,0,1-6-6V13a6,6,0,0,1,12,0v6A6.006,6.006,0,0,1,32,25ZM32,9a4,4,0,0,0-4,4v6a4,4,0,0,0,8,0V13A4,4,0,0,0,32,9Z"/><rect x="34" y="17.757" width="2" height="8.485" transform="translate(-5.305 31.192) rotate(-45)"/></g></svg>