<?xml version="1.0" encoding="iso-8859-1"?>
<!-- Uploaded to: SVG Repo, www.svgrepo.com, Generator: SVG Repo Mixer Tools -->
<svg fill="#000000" height="800px" width="800px" version="1.1" id="Capa_1" xmlns="http://www.w3.org/2000/svg" xmlns:xlink="http://www.w3.org/1999/xlink" 
	 viewBox="0 0 490 490" xml:space="preserve">
<g>
	<g>
		<path d="M468.2,423.4H21.8c-12,0-21.8,9.8-21.8,21.8S9.8,467,21.8,467h446.4c12,0,21.8-9.8,21.8-21.8S480.2,423.4,468.2,423.4z"/>
		<g>
			<path d="M471.1,229.6c-9.8-6.5-22.9-4.4-29.4,5.4L409,280.7V54.3c0-12-9.8-21.8-21.8-21.8s-21.8,9.8-21.8,21.8v226.5l-32.7-45.7
				c-6.5-9.8-19.6-12-29.4-5.4c-9.8,6.5-12,19.6-5.4,29.4l71.9,101.3c7.7,10.9,24.8,12.6,34.8-1.1l71.9-100.2
				C483,249.2,480.9,236.1,471.1,229.6z"/>
			<path d="M291.1,349.5L171,36.7c-3.2-8.2-11.1-13.7-19.9-13.7s-16.7,5.4-19.9,13.7l-120,312.8c-4.2,11,1.3,23.3,12.3,27.6
				c2.5,1,5.1,1.4,7.6,1.4c8.6,0,16.7-5.2,19.9-13.7l30.9-80.4h138.6l30.8,80.4c4.2,11,16.6,16.5,27.6,12.3
				C289.8,372.8,295.3,360.5,291.1,349.5z M98.2,241.7l52.9-137.8L204,241.8H98.2V241.7z"/>
		</g>
	</g>
</g>
</svg>