<svg xmlns="http://www.w3.org/2000/svg" viewBox="0 0 32 32"><title>video player android app aplication phone</title><g id="video_player_android_app_aplication_phone" data-name="video player android app aplication phone"><path d="M31,16h0a65.13,65.13,0,0,0-.44-7.52,8,8,0,0,0-7-7,64.29,64.29,0,0,0-15.06,0,8,8,0,0,0-7,7A65.13,65.13,0,0,0,1,16H1a65,65,0,0,0,.44,7.52,8,8,0,0,0,7,7,64.29,64.29,0,0,0,15.06,0,8,8,0,0,0,7-7A65,65,0,0,0,31,16Zm-2.22,5H24V17h5C29,18.34,28.88,19.67,28.78,21ZM24,15V11h4.78c.1,1.33.17,2.66.19,4Zm4.57-6.3c0,.1,0,.2,0,.3H24V3.57A5.94,5.94,0,0,1,28.57,8.7ZM3.22,11H8v4H3C3.05,13.66,3.12,12.33,3.22,11ZM3,17H8v4H3.22C3.12,19.67,3.05,18.34,3,17ZM8,3.57V9H3.4c0-.1,0-.2,0-.3A5.94,5.94,0,0,1,8,3.57ZM3.43,23.3c0-.1,0-.2,0-.3H8v5.43A5.94,5.94,0,0,1,3.43,23.3ZM10,28.69V3.31a58,58,0,0,1,12,0V28.69A63.3,63.3,0,0,1,10,28.69Zm14-.26V23h4.6c0,.1,0,.2,0,.3A5.94,5.94,0,0,1,24,28.43Z"/><path d="M19.45,15.11l-6-3A1,1,0,0,0,12,13v6a1,1,0,0,0,1.45.89l6-3A1,1,0,0,0,19.45,15.11ZM14,17.38V14.62L16.76,16Z"/></g></svg>