<svg xmlns="http://www.w3.org/2000/svg" viewBox="0 0 512 512"><g id="Eye_Examination"><path d="M246.8752,324.8193q1.3287.06,2.6569.1029c.6018.0187,1.203.0384,1.8058.0519,1.5553.0359,3.11.06,4.6621.06s3.1068-.0242,4.6621-.06c.6028-.0135,1.204-.0332,1.8058-.0519q1.3284-.0426,2.6569-.1029c.8046-.0354,1.6091-.07,2.4116-.1152.2093-.012.4184-.028.6277-.0405,52.5917-3.0955,100.7114-26.1831,133.4487-64.4375L405.23,256l-3.6167-4.2261c-33.5511-39.2053-83.259-62.4779-137.3792-64.6278q-.4382-.0175-.8762-.0339c-1.1084-.0393-2.2176-.0729-3.3295-.0945-.2739-.0054-.5477-.0062-.8216-.0106-1.0683-.0164-2.135-.0413-3.2063-.0413s-2.138.0249-3.2063.0413c-.2739.0044-.5477.0052-.8216.0106-1.1119.0216-2.2211.0552-3.33.0945q-.4381.0157-.8762.0339c-54.12,2.15-103.8281,25.4225-137.3792,64.6278L106.7705,256l3.6167,4.2261c32.7373,38.2544,80.857,61.342,133.4487,64.4375.2093.0125.4184.0285.6277.0405C245.2661,324.7489,246.0706,324.7839,246.8752,324.8193Zm5.4731-12.83q-1.4835-.0282-2.9665-.0813-.4092-.014-.8178-.03a190.2737,190.2737,0,0,1-20.46-1.8979,60.7611,60.7611,0,0,1,0-107.959,190.2879,190.2879,0,0,1,20.4614-1.8979q.408-.0157.8164-.03,1.4834-.0513,2.9674-.0813c.2826-.0054.566-.0065.8488-.0105q2.8016-.0411,5.6036,0c.2837.004.5677.0051.8511.0105q1.483.0282,2.9652.0812c.2736.0092.5469.02.82.03a190.3515,190.3515,0,0,1,20.4593,1.8979,60.7613,60.7613,0,0,1,0,107.959,190.2737,190.2737,0,0,1-20.4605,1.8979q-.4087.0157-.8178.03-1.4829.0513-2.9665.0813c-.2829.0054-.5666.0065-.85.0105q-2.8018.0411-5.6038,0C252.9149,311.9955,252.6312,311.9944,252.3483,311.989ZM387.9907,256A171.8562,171.8562,0,0,1,312.53,303.4631a73.9783,73.9783,0,0,0,0-94.9261A171.8562,171.8562,0,0,1,387.9907,256Zm-263.9814,0A171.8562,171.8562,0,0,1,199.47,208.5369a73.9776,73.9776,0,0,0,0,94.9262A171.8562,171.8562,0,0,1,124.0093,256Z"/><circle cx="256" cy="256" r="37.8762"/><path d="M396.59,388.09H354.61v13h42.48a12.5141,12.5141,0,0,0,12.5-12.5V346.11h-13Z"/><path d="M397.09,110.91H354.61v13h41.98v41.9795h13V123.41A12.5141,12.5141,0,0,0,397.09,110.91Z"/><path d="M115.41,346.11h-13v42.48a12.5141,12.5141,0,0,0,12.5,12.5h42.48v-13H115.41Z"/><path d="M115.41,123.91h41.98v-13H114.91a12.5141,12.5141,0,0,0-12.5,12.5v42.4795h13Z"/></g></svg>